<?xml version="1.0" encoding="utf-8"?>
<!-- Generator: Adobe Illustrator 15.1.0, SVG Export Plug-In . SVG Version: 6.00 Build 0)  -->
<!DOCTYPE svg PUBLIC "-//W3C//DTD SVG 1.1//EN" "http://www.w3.org/Graphics/SVG/1.1/DTD/svg11.dtd">
<svg version="1.1" id="Layer_1" xmlns="http://www.w3.org/2000/svg" xmlns:xlink="http://www.w3.org/1999/xlink" x="0px" y="0px"
	 width="317.346px" height="359.557px" viewBox="0 0 317.346 359.557" enable-background="new 0 0 317.346 359.557"
	 xml:space="preserve">
<path id="TehKitty" d="M311.146,126.033c-9.163-9.604-38.491-12.632-54.109,14.565c-15.625,27.196-15.204,37.216-16.979,43.182
	c-1.785,5.96-2.896,9.204-11.129,6.229c-8.225-2.977-45.953-14.778-68.854-13.994c0,0-10.172-0.255-17.201-4.217
	c-7.025-3.961-29.508-10.109-29.508-10.109s-3.835-14.375-3.568-21.984c0.265-7.611-1.646-14.159,4.341-22.93
	c5.987-8.769,9.315-22.348,1.998-23.817c-7.316-1.474-22.121,6.732-23.932,6.291c-1.81-0.444-14.496-6.113-29.273-8.455
	c0,0-17.272-19.584-22.176-20.467c-4.899-0.883,1.981,20.636,0.138,29.462c-1.843,8.822-18.483,11.462-13.085,37.734
	c5.396,26.271,1.369,19.208-2.025,34.37c-3.398,15.156-1.07,61.793,17.666,88.455c0,0,0.848,4.366-4.764,12.905
	c-5.612,8.54-8.386,27.69-2.951,45.978c0,0-0.339,7.914-3.937,12.146c-3.595,4.239-4.86,8.087,4.421,10.684
	c9.28,2.597,15.103,7.543,22.977-1.082c7.87-8.627,38.354-48.177,42.931-52.492c4.576-4.316,8.554-7.504,12.852-6.771
	c4.301,0.733,53.85,9.999,56.573,13.229c2.731,3.229,18.973,28.312,15.674,31.346c-3.305,3.03-16.203,16.505-22.229,16.31
	c-6.03-0.197-14.667,5.041-11.938,9.551c2.736,4.511,11.809,10.566,23.61,5.468c11.809-5.104,9.396-5.693,13.92-4.586
	c4.525,1.108,10.438,8.312,21.165-1.527c10.729-9.852,37.827-32.956,23.534-43.812c0,0-4.533-2.394-2.906-9.029
	c1.625-6.635-2.064-7.221-1.934-10.387c0.136-3.167,10.41-13.762,17.014-19.817c6.604-6.061,16.989-24.947,15.619-44.155
	c-1.368-19.208-0.964-28.703,4.381-46.586c5.344-17.884,10.247-32.676,24.229-38.844c13.99-6.169,11.363,12.382,9.961,18.113
	c-1.404,5.73,6.396,14.36,11.325,5.975C317.904,154.56,320.305,135.635,311.146,126.033z M54.568,306.97
	c0,0-4.458-10.206-3.733-12.188c0.728-1.985,11.711-9.608,11.711-9.608S58.09,299.438,54.568,306.97z"/>
<g id="Helmet">
	<path id="HelmetDarkerGlass" opacity="0.5" fill="#377493" enable-background="new    " d="M71,177.16
		c13.62,0,25.972-2.38,35.055-6.243c5.222-3.087,10-6.839,14.22-11.146c0.793-1.564,1.225-3.19,1.225-4.861
		c0-5.418-4.398-10.384-11.703-14.241c0.013,2.204,0.298,4.823,0.71,7.478c1.715,2.104,2.659,4.386,2.659,6.767
		c0,10.679-18.878,19.336-42.166,19.336s-42.166-8.657-42.166-19.336c0-1.602,0.432-3.153,1.23-4.641
		c-0.259-2.055-0.665-4.539-1.239-7.598c-5.257,3.513-8.325,7.716-8.325,12.235c0,1.671,0.432,3.297,1.224,4.861
		c4.22,4.308,8.999,8.061,14.221,11.146C45.028,174.781,57.38,177.16,71,177.16z"/>
	<circle id="HelmetGlass" opacity="0.5" fill="#377493" enable-background="new    " cx="71" cy="111.491" r="69"/>
	<g id="RightSpike">
		<path id="RightPointBit" opacity="0.5" fill="#377493" enable-background="new    " d="M120.766,94.745l52.375-47.43l0.522-0.362
			l-0.286,0.146l0.239-0.217l-0.521,0.362L110.252,79.57c-0.147,0.059-0.287,0.125-0.417,0.217
			c-1.892,1.312-1.056,5.792,1.868,10.01c2.923,4.22,6.825,6.574,8.716,5.265C120.548,94.969,120.662,94.862,120.766,94.745z"/>
		<path id="RightLowerRing" opacity="0.5" fill="#377493" enable-background="new    " d="M132.147,75.625
			c-5.112-7.376-11.891-11.53-15.141-9.275c-3.251,2.252-1.741,10.06,3.371,17.436c5.113,7.376,11.892,11.528,15.141,9.275
			C138.77,90.808,137.26,83.002,132.147,75.625z M121.148,83.249c-3.548-5.119-4.133-10.854-1.31-12.812
			c2.825-1.958,7.99,0.604,11.538,5.726c3.547,5.118,4.134,10.854,1.31,12.812C129.862,90.929,124.696,88.367,121.148,83.249z"/>
		<path id="RightUpperRing" opacity="0.5" fill="#377493" enable-background="new    " d="M139.47,70.55
			c-4.219-6.087-9.813-9.516-12.495-7.654c-2.683,1.857-1.437,8.302,2.782,14.391c4.219,6.087,9.813,9.516,12.495,7.655
			C144.935,83.081,143.688,76.638,139.47,70.55z M130.392,76.842c-2.928-4.225-3.411-8.958-1.08-10.573s6.594,0.5,9.522,4.727
			c2.928,4.224,3.411,8.959,1.08,10.572C137.583,83.182,133.32,81.066,130.392,76.842z"/>
	</g>
	<g id="LeftSpike">
		<path id="LeftPointyBit" opacity="0.5" fill="#377493" enable-background="new    " d="M41.13,64.01L5.999,2.704L5.755,2.112
			l0.083,0.312l-0.16-0.276L5.92,2.729l18.138,68.308c0.023,0.153,0.061,0.308,0.121,0.453c0.876,2.128,5.433,2.269,10.178,0.312
			c4.745-1.951,7.882-5.262,7.005-7.39C41.303,64.27,41.223,64.135,41.13,64.01z"/>
		<path id="LeftLowerRing" opacity="0.5" fill="#377493" enable-background="new    " d="M24.887,48.802
			c-8.298,3.417-13.806,9.15-12.3,12.809c1.505,3.656,9.453,3.853,17.752,0.436c8.299-3.416,13.806-9.148,12.301-12.809
			C41.135,45.58,33.186,45.385,24.887,48.802z M29.981,61.177c-5.759,2.371-11.488,1.718-12.796-1.461
			c-1.308-3.178,2.3-7.676,8.059-10.046c5.759-2.371,11.488-1.717,12.796,1.46C39.348,54.308,35.74,58.807,29.981,61.177z"/>
		<path id="LeftUpperRing" opacity="0.5" fill="#377493" enable-background="new    " d="M21.496,40.565
			c-6.85,2.817-11.395,7.553-10.152,10.567c1.242,3.019,7.802,3.18,14.651,0.358c6.849-2.822,11.394-7.554,10.152-10.569
			C34.904,37.906,28.345,37.745,21.496,40.565z M25.7,50.777c-4.753,1.957-9.481,1.417-10.561-1.206
			c-1.08-2.621,1.899-6.335,6.651-8.292c4.753-1.955,9.481-1.417,10.561,1.206S30.453,48.821,25.7,50.777z"/>
	</g>
</g>
</svg>
