<?xml version="1.0" encoding="utf-8"?>
<!-- Generator: Adobe Illustrator 15.1.0, SVG Export Plug-In . SVG Version: 6.00 Build 0)  -->
<!DOCTYPE svg PUBLIC "-//W3C//DTD SVG 1.1//EN" "http://www.w3.org/Graphics/SVG/1.1/DTD/svg11.dtd">
<svg version="1.1" id="Layer_1" xmlns="http://www.w3.org/2000/svg" xmlns:xlink="http://www.w3.org/1999/xlink" x="0px" y="0px"
	 width="317.346px" height="357.441px" viewBox="0 0 317.346 357.441" enable-background="new 0 0 317.346 357.441"
	 xml:space="preserve">
<g id="TehKitty">
	<g>
		<g>
			<path d="M311.146,126.033c-9.163-9.604-38.491-12.631-54.109,14.566c-15.625,27.197-15.204,37.216-16.979,43.181
				c-1.785,5.96-2.896,9.205-11.129,6.229c-8.225-2.977-45.953-14.779-68.854-13.995c0,0-10.172-0.254-17.201-4.216
				c-7.025-3.961-29.508-10.11-29.508-10.11s-3.835-14.375-3.568-21.985c0.265-7.611-1.646-14.159,4.341-22.929
				c5.987-8.768,9.315-22.347,1.998-23.818c-7.316-1.473-22.121,6.733-23.932,6.291c-1.81-0.444-14.496-6.113-29.273-8.455
				c0,0-17.272-19.584-22.176-20.467c-4.899-0.882,1.981,20.636,0.138,29.462c-1.843,8.823-18.483,11.462-13.085,37.735
				c5.396,26.271,1.369,19.208-2.025,34.37c-3.398,15.157-1.07,61.793,17.666,88.455c0,0,0.848,4.367-4.764,12.906
				c-5.612,8.54-8.386,27.691-2.951,45.977c0,0-0.339,7.914-3.937,12.147c-3.595,4.239-4.86,8.087,4.421,10.683
				c9.28,2.596,15.103,7.543,22.977-1.082c7.87-8.627,38.354-48.176,42.931-52.492c4.576-4.317,8.554-7.504,12.852-6.771
				c4.301,0.733,53.85,9.999,56.573,13.229c2.731,3.228,18.973,28.313,15.674,31.345c-3.305,3.031-16.203,16.505-22.229,16.309
				c-6.03-0.197-14.667,5.041-11.938,9.551c2.736,4.51,11.809,10.567,23.61,5.467c11.809-5.104,9.396-5.693,13.92-4.586
				c4.525,1.109,10.438,8.312,21.165-1.527c10.729-9.851,37.827-32.956,23.534-43.812c0,0-4.533-2.393-2.906-9.03
				c1.625-6.634-2.064-7.22-1.934-10.386c0.136-3.167,10.41-13.762,17.014-19.818c6.604-6.06,16.989-24.947,15.619-44.155
				c-1.368-19.208-0.964-28.704,4.381-46.586c5.344-17.884,10.247-32.676,24.229-38.844c13.99-6.169,11.363,12.382,9.961,18.113
				c-1.406,5.732,6.396,14.361,11.325,5.975C317.904,154.56,320.305,135.635,311.146,126.033z M54.568,306.97
				c0,0-4.458-10.206-3.733-12.188c0.728-1.985,11.711-9.608,11.711-9.608S58.09,299.438,54.568,306.97z"/>
		</g>
	</g>
</g>
<g id="Helmet">
	<path opacity="0.5" fill="#377493" enable-background="new    " d="M71,177.16c13.62,0,25.972-2.38,35.055-6.243
		c5.222-3.087,10-6.839,14.22-11.146c0.793-1.565,1.225-3.191,1.225-4.862c0-5.418-4.398-10.383-11.703-14.241
		c0.013,2.204,0.298,4.823,0.71,7.477c1.715,2.105,2.659,4.385,2.659,6.766c0,10.679-18.878,19.336-42.166,19.336
		s-42.166-8.657-42.166-19.336c0-1.601,0.432-3.153,1.23-4.64c-0.259-2.054-0.665-4.539-1.239-7.597
		c-5.257,3.512-8.325,7.715-8.325,12.235c0,1.671,0.432,3.297,1.224,4.862c4.22,4.307,8.999,8.06,14.221,11.146
		C45.028,174.781,57.38,177.16,71,177.16z"/>
	<circle opacity="0.5" fill="#377493" enable-background="new    " cx="71" cy="111.491" r="69"/>
</g>
<g id="RightSpike">
	<path opacity="0.5" fill="#377493" enable-background="new    " d="M120.766,94.745l52.375-47.429l0.524-0.363l-0.286,0.146
		l0.239-0.216l-0.521,0.362L110.252,79.57c-0.147,0.058-0.287,0.125-0.417,0.216c-1.892,1.312-1.056,5.792,1.868,10.01
		c2.923,4.219,6.825,6.574,8.716,5.264C120.548,94.969,120.662,94.862,120.766,94.745z"/>
	<path opacity="0.5" fill="#377493" enable-background="new    " d="M132.147,75.625c-5.112-7.376-11.891-11.53-15.141-9.276
		c-3.251,2.252-1.741,10.059,3.371,17.435c5.113,7.376,11.892,11.529,15.141,9.276C138.77,90.808,137.26,83.002,132.147,75.625z
		 M121.148,83.249c-3.548-5.119-4.133-10.854-1.31-12.812c2.825-1.958,7.99,0.604,11.538,5.725
		c3.547,5.118,4.134,10.854,1.31,12.812C129.862,90.929,124.696,88.367,121.148,83.249z"/>
	<path opacity="0.5" fill="#377493" enable-background="new    " d="M139.47,70.55c-4.219-6.087-9.813-9.516-12.495-7.655
		c-2.683,1.858-1.437,8.301,2.782,14.39c4.219,6.087,9.813,9.516,12.495,7.656C144.935,83.081,143.688,76.638,139.47,70.55z
		 M130.392,76.842c-2.928-4.225-3.411-8.958-1.08-10.574c2.331-1.615,6.594,0.5,9.522,4.726c2.928,4.224,3.411,8.959,1.08,10.573
		C137.583,83.181,133.32,81.066,130.392,76.842z"/>
</g>
<g id="LeftSpike">
	<path opacity="0.5" fill="#377493" enable-background="new    " d="M41.13,64.01L5.999,2.704L5.755,2.112l0.083,0.312l-0.16-0.277
		L5.92,2.729l18.138,68.307c0.023,0.154,0.061,0.308,0.121,0.453c0.876,2.128,5.433,2.269,10.178,0.313
		c4.745-1.952,7.882-5.262,7.005-7.39C41.303,64.27,41.223,64.135,41.13,64.01z"/>
	<path opacity="0.5" fill="#377493" enable-background="new    " d="M24.887,48.802c-8.298,3.417-13.806,9.15-12.3,12.808
		c1.505,3.656,9.453,3.852,17.752,0.435c8.299-3.416,13.806-9.149,12.301-12.808C41.135,45.58,33.186,45.385,24.887,48.802z
		 M29.981,61.177c-5.759,2.371-11.488,1.717-12.796-1.461s2.3-7.676,8.059-10.046c5.759-2.371,11.488-1.717,12.796,1.46
		C39.348,54.308,35.74,58.807,29.981,61.177z"/>
	<path opacity="0.5" fill="#377493" enable-background="new    " d="M21.496,40.565c-6.85,2.818-11.395,7.552-10.152,10.568
		c1.242,3.018,7.802,3.179,14.651,0.358s11.394-7.553,10.152-10.569C34.904,37.906,28.345,37.745,21.496,40.565z M25.7,50.777
		c-4.753,1.957-9.481,1.417-10.561-1.206c-1.08-2.622,1.899-6.335,6.651-8.292c4.753-1.956,9.481-1.417,10.561,1.206
		S30.453,48.821,25.7,50.777z"/>
</g>
</svg>
